# xmcd
#
# Track frame offsets: 
#        150
#        22630
#        48626
#        79755
#        108594
#        133607
#        156307
#        181039
#        201792
#        233789
#        264694
#        288706
#
# Disc length: 4479 seconds
#
# Revision: 1
# Processed by: cddbd v1.5.2PL0 Copyright (c) Steve Scherf et al.
# Submitted via: ExactAudioCopy v1.1
#
DISCID=a3117d0c
DTITLE=Tom Cochrane - Mad Mad World Cd2 (1991) Live From Westwood One 
DTITLE=Chicago
DYEAR=2016
DGENRE=Blues
TTITLE0=No Regrets
TTITLE1=Victory Day
TTITLE2=Sinking Like A Sunset
TTITLE3=White Hot
TTITLE4=Big League
TTITLE5=Friendly Advice
TTITLE6=Lunatic Fringe
TTITLE7=Get Back Up
TTITLE8=Brave And Crazy
TTITLE9=Life Is A Highway
TTITLE10=Mad Mad World
TTITLE11=Boy Inside The Man
EXTD=
EXTT0=
EXTT1=
EXTT2=
EXTT3=
EXTT4=
EXTT5=
EXTT6=
EXTT7=
EXTT8=
EXTT9=
EXTT10=
EXTT11=
PLAYORDER=
